<svg width="24" height="24" viewBox="0 0 24 24" fill="none" xmlns="http://www.w3.org/2000/svg">
<path d="M23.235 10.95H21.495V20.475H2.50498V4.92H12V3H2.50498C2.26262 3.0076 2.02425 3.06369 1.80393 3.16495C1.58361 3.26621 1.38581 3.41059 1.22222 3.58956C1.05862 3.76854 0.932549 3.97848 0.851441 4.20699C0.770332 4.43549 0.735832 4.67794 0.749979 4.92V20.475C0.741968 20.7134 0.781022 20.951 0.864906 21.1743C0.948791 21.3976 1.07586 21.6021 1.23885 21.7763C1.40185 21.9504 1.59756 22.0907 1.81481 22.1891C2.03206 22.2876 2.26659 22.3423 2.50498 22.35H21.495C21.7334 22.3423 21.9679 22.2876 22.1851 22.1891C22.4024 22.0907 22.5981 21.9504 22.7611 21.7763C22.9241 21.6021 23.0512 21.3976 23.1351 21.1743C23.2189 20.951 23.258 20.7134 23.25 20.475L23.235 10.95Z" fill="#999999"/>
<path d="M15.84 4.305L9.32999 10.83L8.66999 11.49L8.54999 11.61L6.26999 16.35C6.11702 16.6543 6.06386 16.9991 6.11806 17.3354C6.17226 17.6716 6.33106 17.9822 6.5719 18.2231C6.81274 18.4639 7.12337 18.6227 7.45963 18.6769C7.79589 18.7311 8.14068 18.678 8.44499 18.525L13.155 16.23L13.95 15.435L14.595 14.79L21.105 8.25L21.78 7.59L22.155 7.215C22.7669 6.60194 23.1105 5.77116 23.1105 4.905C23.1105 4.03884 22.7669 3.20806 22.155 2.595C21.5448 1.98926 20.7198 1.64953 19.86 1.65C18.9957 1.64883 18.1657 1.98836 17.55 2.595L16.5 3.63L15.825 4.29L15.84 4.305ZM8.26499 16.5L10.035 12.855L11.91 14.745L8.26499 16.5ZM11.265 11.46L17.115 5.595L19.065 7.56L13.275 13.5L11.265 11.46ZM19.785 3.495C19.9663 3.49438 20.1458 3.52988 20.3132 3.59942C20.4806 3.66895 20.6325 3.77113 20.76 3.9C21.0192 4.16129 21.1647 4.51443 21.1647 4.8825C21.1647 5.25056 21.0192 5.60371 20.76 5.865L20.385 6.225L18.435 4.275L18.81 3.9C18.9454 3.76669 19.1079 3.66417 19.2865 3.59945C19.4652 3.53473 19.6556 3.50934 19.845 3.525L19.785 3.495Z" fill="teal"/>
</svg>
